<?xml version="1.0"?>
<VTKFile type="UnstructuredGrid" version="0.1" byte_order="LittleEndian" header_type="UInt32">
  <UnstructuredGrid>
    <Piece NumberOfPoints="36" NumberOfCells="12">
      <PointData>
        <DataArray type="Float64" Name="displacement" NumberOfComponents="3" format="ascii" RangeMin="0" RangeMax="0.36055512754639896">
          0 0 0 0.1 0 0
          0.2 0 0 0.3 0 0
          0 0 0 0.1 0 0
          0.2 0 0 0.3 0 0
          0 0 0 0.1 0 0
          0.2 0 0 0.3 0 0
          0 0 -0.1 0.1 0 -0.1
          0.2 0 -0.1 0.3 0 -0.1
          0 0 -0.1 0.1 0 -0.1
          0.2 0 -0.1 0.3 0 -0.1
          0 0 -0.1 0.1 0 -0.1
          0.2 0 -0.1 0.3 0 -0.1
          0 0 -0.2 0.1 0 -0.2
          0.2 0 -0.2 0.3 0 -0.2
          0 0 -0.2 0.1 0 -0.2
          0.2 0 -0.2 0.3 0 -0.2
          0 0 -0.2 0.1 0 -0.2
          0.2 0 -0.2 0.3 0 -0.2
          <InformationKey name="L2_NORM_RANGE" location="vtkDataArray" length="2">
            <Value index="0">
              0
            </Value>
            <Value index="1">
              0.36055512755
            </Value>
          </InformationKey>
        </DataArray>
        <DataArray type="Float64" Name="temperature" format="ascii" RangeMin="300" RangeMax="310">
          300 300 300 300 300 300
          300 300 300 300 300 300
          305 305 305 305 305 305
          305 305 305 305 305 305
          310 310 310 310 310 310
          310 310 310 310 310 310
        </DataArray>
      </PointData>
      <CellData>
        <DataArray type="Int32" Name="material" format="ascii" RangeMin="1" RangeMax="2">
          1 1 1 1 1 1
          2 2 2 2 2 2
        </DataArray>
      </CellData>
      <Points>
        <DataArray type="Float64" Name="Points" NumberOfComponents="3" format="ascii" RangeMin="0" RangeMax="37.416573867739416">
          0 0 0 10 0 0
          20 0 0 30 0 0
          0 10 0 10 10 0
          20 10 0 30 10 0
          0 20 0 10 20 0
          20 20 0 30 20 0
          0 0 5 10 0 5
          20 0 5 30 0 5
          0 10 5 10 10 5
          20 10 5 30 10 5
          0 20 5 10 20 5
          20 20 5 30 20 5
          0 0 10 10 0 10
          20 0 10 30 0 10
          0 10 10 10 10 10
          20 10 10 30 10 10
          0 20 10 10 20 10
          20 20 10 30 20 10
          <InformationKey name="L2_NORM_RANGE" location="vtkDataArray" length="2">
            <Value index="0">
              0
            </Value>
            <Value index="1">
              37.416573868
            </Value>
          </InformationKey>
        </DataArray>
      </Points>
      <Cells>
        <DataArray type="Int64" Name="connectivity" format="ascii" RangeMin="0" RangeMax="35">
          0 1 5 4 12 13
          17 16 1 2 6 5
          13 14 18 17 2 3
          7 6 14 15 19 18
          4 5 9 8 16 17
          21 20 5 6 10 9
          17 18 22 21 6 7
          11 10 18 19 23 22
          12 13 17 16 24 25
          29 28 13 14 18 17
          25 26 30 29 14 15
          19 18 26 27 31 30
          16 17 21 20 28 29
          33 32 17 18 22 21
          29 30 34 33 18 19
          23 22 30 31 35 34
        </DataArray>
        <DataArray type="Int64" Name="offsets" format="ascii" RangeMin="8" RangeMax="96">
          8 16 24 32 40 48
          56 64 72 80 88 96
        </DataArray>
        <DataArray type="UInt8" Name="types" format="ascii" RangeMin="12" RangeMax="12">
          12 12 12 12 12 12
          12 12 12 12 12 12
        </DataArray>
      </Cells>
    </Piece>
  </UnstructuredGrid>
</VTKFile>
