# vtk DataFile Version 4.2
vtk output
ASCII
DATASET UNSTRUCTURED_GRID
POINTS 36 double
0 0 0 10 0 0 20 0 0 
30 0 0 0 10 0 10 10 0 
20 10 0 30 10 0 0 20 0 
10 20 0 20 20 0 30 20 0 
0 0 5 10 0 5 20 0 5 
30 0 5 0 10 5 10 10 5 
20 10 5 30 10 5 0 20 5 
10 20 5 20 20 5 30 20 5 
0 0 10 10 0 10 20 0 10 
30 0 10 0 10 10 10 10 10 
20 10 10 30 10 10 0 20 10 
10 20 10 20 20 10 30 20 10 

CELLS 12 108
8 0 1 5 4 12 13 17 16 
8 1 2 6 5 13 14 18 17 
8 2 3 7 6 14 15 19 18 
8 4 5 9 8 16 17 21 20 
8 5 6 10 9 17 18 22 21 
8 6 7 11 10 18 19 23 22 
8 12 13 17 16 24 25 29 28 
8 13 14 18 17 25 26 30 29 
8 14 15 19 18 26 27 31 30 
8 16 17 21 20 28 29 33 32 
8 17 18 22 21 29 30 34 33 
8 18 19 23 22 30 31 35 34 

CELL_TYPES 12
12
12
12
12
12
12
12
12
12
12
12
12

CELL_DATA 12
FIELD FieldData 1
material 1 12 int
1 1 1 1 1 1 2 2 2 
2 2 2 
POINT_DATA 36
FIELD FieldData 2
temperature 1 36 double
300 300 300 300 300 300 300 300 300 
300 300 300 305 305 305 305 305 305 
305 305 305 305 305 305 310 310 310 
310 310 310 310 310 310 310 310 310 

displacement 3 36 double
0 0 -0 0.2 0 -0 0.4 0 -0 
0.6 0 -0 0 0 -0 0.2 0 -0 
0.4 0 -0 0.6 0 -0 0 0 -0 
0.2 0 -0 0.4 0 -0 0.6 0 -0 
0 0 -0.2 0.2 0 -0.2 0.4 0 -0.2 
0.6 0 -0.2 0 0 -0.2 0.2 0 -0.2 
0.4 0 -0.2 0.6 0 -0.2 0 0 -0.2 
0.2 0 -0.2 0.4 0 -0.2 0.6 0 -0.2 
0 0 -0.4 0.2 0 -0.4 0.4 0 -0.4 
0.6 0 -0.4 0 0 -0.4 0.2 0 -0.4 
0.4 0 -0.4 0.6 0 -0.4 0 0 -0.4 
0.2 0 -0.4 0.4 0 -0.4 0.6 0 -0.4 

